<svg width="70" height="70" viewBox="0 0 70 70" fill="none" xmlns="http://www.w3.org/2000/svg">
<circle cx="35" cy="35" r="35" fill="white"/>
<path d="M43.3333 45C41.4833 45 40 46.4834 40 48.3334C40 49.2174 40.3512 50.0653 40.9763 50.6904C41.6014 51.3155 42.4493 51.6667 43.3333 51.6667C44.2174 51.6667 45.0652 51.3155 45.6904 50.6904C46.3155 50.0653 46.6667 49.2174 46.6667 48.3334C46.6667 47.4493 46.3155 46.6015 45.6904 45.9764C45.0652 45.3512 44.2174 45 43.3333 45ZM16.6667 18.3334V21.6667H20L26 34.3167L23.7333 38.4C23.4833 38.8667 23.3333 39.4167 23.3333 40C23.3333 40.8841 23.6845 41.7319 24.3096 42.3571C24.9348 42.9822 25.7826 43.3334 26.6667 43.3334H46.6667V40H27.3667C27.2562 40 27.1502 39.9561 27.072 39.878C26.9939 39.7999 26.95 39.6939 26.95 39.5834C26.95 39.5 26.9667 39.4334 27 39.3834L28.5 36.6667H40.9167C42.1667 36.6667 43.2667 35.9667 43.8333 34.95L49.8 24.1667C49.9167 23.9 50 23.6167 50 23.3334C50 22.8913 49.8244 22.4674 49.5118 22.1549C49.1993 21.8423 48.7754 21.6667 48.3333 21.6667H23.6833L22.1167 18.3334M26.6667 45C24.8167 45 23.3333 46.4834 23.3333 48.3334C23.3333 49.2174 23.6845 50.0653 24.3096 50.6904C24.9348 51.3155 25.7826 51.6667 26.6667 51.6667C27.5507 51.6667 28.3986 51.3155 29.0237 50.6904C29.6488 50.0653 30 49.2174 30 48.3334C30 47.4493 29.6488 46.6015 29.0237 45.9764C28.3986 45.3512 27.5507 45 26.6667 45Z" fill="#3C335D"/>
</svg>
